# xmcd CD database file
#
# Track frame offsets:
#	187
#	20980
#	39125
#	56470
#	74847
#	91507
#	115877
#	132685
#	150652
#	170297
#	196732
#	218517
#
# Disc length: 3168 seconds
#
# Revision: 2
# Processed by: cddbd v1.5PL3 Copyright (c) Steve Scherf et al.
# Submitted via: CDex 1.51
#
DISCID=9f0c5e0c
DTITLE=TREAT - Treat
DYEAR=1992
DGENRE=Metal
TTITLE0=Watch Your Tongue
TTITLE1=Blood Sweat And Love
TTITLE2=Bangin' On Your Door
TTITLE3=Poor Man
TTITLE4=We're Alright Now
TTITLE5=Dog Day Comin' Down
TTITLE6=Justice
TTITLE7=New Religion
TTITLE8=Ready, Steady, Go
TTITLE9=Learn To Fly
TTITLE10=Whole Lotta Shakin'
TTITLE11=Keep It Comin'
EXTD=YEAR: 1992
EXTT0=
EXTT1=
EXTT2=
EXTT3=
EXTT4=
EXTT5=
EXTT6=
EXTT7=
EXTT8=
EXTT9=
EXTT10=
EXTT11=
PLAYORDER=
